<?xml version="1.0" encoding="utf-8"?>
<!-- Generator: Adobe Illustrator 24.1.0, SVG Export Plug-In . SVG Version: 6.00 Build 0)  -->
<svg version="1.0" xmlns="http://www.w3.org/2000/svg" xmlns:xlink="http://www.w3.org/1999/xlink" x="0px" y="0px"
	 viewBox="0 0 1625.8 479.6" style="enable-background:new 0 0 1625.8 479.6;" xml:space="preserve">
<style type="text/css">
	.st0{fill-rule:evenodd;clip-rule:evenodd;fill:#141837;}
	.st1{fill-rule:evenodd;clip-rule:evenodd;fill:#39C0CE;}
	.st2{fill-rule:evenodd;clip-rule:evenodd;fill:#B0E6EB;}
	.st3{fill-rule:evenodd;clip-rule:evenodd;fill:#FFFFFF;}
	.st4{fill:#141837;}
	.st5{display:none;}
	.st6{display:inline;}
	.st7{fill-rule:evenodd;clip-rule:evenodd;fill:none;stroke:#A20075;stroke-width:0.25;stroke-miterlimit:10;}
	.st8{fill-rule:evenodd;clip-rule:evenodd;fill:none;stroke:#A20075;stroke-width:0.241;stroke-miterlimit:10;}
</style>
<g id="Layer_2">
	<g>
		<circle class="st0" cx="239.8" cy="239.8" r="136.9"/>
		<path class="st1" d="M324.5,259.2L312,252l-59.8,34.5c-7.7,4.4-17.2,4.4-24.8,0L167.6,252l-12.5,7.2c-4.9,2.8-4.9,9.9,0,12.7
			l72.3,41.7c7.7,4.4,17.2,4.4,24.8,0l72.3-41.7C329.4,269.1,329.4,262,324.5,259.2z"/>
		<path class="st2" d="M227.4,217.5c7.7-4.4,17.2-4.4,24.8,0l36.2,20.9l23.6-13.6l-59.8-34.5c-7.7-4.4-17.2-4.4-24.8,0l-59.8,34.5
			l23.6,13.6L227.4,217.5z"/>
		<path class="st3" d="M227.4,217.5l-36.2,20.9l36.2,20.9c7.7,4.4,17.2,4.4,24.8,0l36.2-20.9l-36.2-20.9
			C244.5,213,235.1,213,227.4,217.5z"/>
		<path class="st1" d="M155.1,217.5l12.5,7.2l0,0l59.8-34.5c7.7-4.4,17.2-4.4,24.8,0l59.8,34.5v0l12.5-7.2c4.9-2.8,4.9-9.9,0-12.7
			L252.2,163c-7.7-4.4-17.2-4.4-24.8,0l-72.3,41.7C150.2,207.6,150.2,214.7,155.1,217.5z"/>
	</g>
	<g>
		<path class="st0" d="M1047.5,183.5L1047.5,183.5c2.7,0,5.4,0.3,8,0.7v-25.8c-5-0.7-10.1-1.1-15.3-1.1h0
			c-25.3,0-45.8,20.5-45.8,45.8v4h-17.1v25.2h17.1v84.2h33.6v-84.2h27.5v-25.2H1028V203C1028,192.2,1036.7,183.5,1047.5,183.5z"/>
		<path class="st0" d="M1449,232.3v-25.2h-27.5v-32.1h-33.6v32.1h-17.1v25.2h17.1v40.1c0,25.3,20.5,45.8,45.8,45.8h0
			c5.2,0,10.3-0.4,15.3-1.1v-25.8c-2.6,0.5-5.3,0.7-8,0.7h0c-10.8,0-19.5-8.7-19.5-19.5v-40.2H1449z"/>
		<rect x="1318" y="159.5" class="st0" width="33.6" height="157"/>
		<path class="st0" d="M1260.1,207.1V274c-1.6,10.5-10.7,18.5-21.6,18.5c-9.5,0-17.2-7.7-17.2-17.2v-68.2H1188v72.7
			c0,21.2,17.2,38.4,38.4,38.4h0c13.1,0,25-5.2,33.8-13.5v11.8h33.8V207.1H1260.1z"/>
		<path class="st0" d="M921.4,205.8L921.4,205.8c-15.3,0-29,7.6-37.6,19.4c-6.4-11.6-18.4-19.4-32.1-19.4h0
			c-13,0-24.8,5.5-33.3,14.3v-12.6h-33.8v109.3h34.4v-63.5c0-12.1,9.4-21.9,21.1-21.9c9.1,0,16.5,7.7,16.5,17.2v68.2h32.1V253
			c0.2-11.9,9.6-21.5,21.1-21.5c9.1,0,16.5,7.7,16.5,17.2v68.2h32.1v-72.7C958.3,223,941.8,205.8,921.4,205.8z"/>
		<path class="st0" d="M764.3,256.3c0-28.6-23.2-51.9-51.9-51.9h0c-28.6,0-51.9,23.2-51.9,51.9v10c0,28.6,23.3,51.9,53.3,51.9
			c16.6,0,34.2-3.5,48.6-13.3l-9-22.3l-2.2,1.3c-9.9,6.1-21.3,9.3-33,9.3h0c-14,0-25.3-11.3-25.3-25.3h71.2V256.3z M733.5,250.6
			h-40.7v-2.2c0-11.2,9.1-20.3,20.3-20.3h0c11.2,0,20.3,9.1,20.3,20.3V250.6z"/>
		<path class="st0" d="M1166.1,251.1c0-0.2,0-0.3,0-0.3c-1.1-24.6-21.4-44.3-46.4-44.3h-1.5c-15.8,0-31,3.6-44.9,10.5l5.3,21.4
			c10-4.7,21.1-8.8,34.9-8.8c14.2,0,20.5,8.4,20.5,18v3.8h-34.7c-18.7,0-34.4,15.3-34,34c0.3,18.1,15.2,32.7,33.4,32.7
			c11.6,0,22.7-4.5,31-12.5l4.4-4.2v14.9h32.1L1166.1,251.1L1166.1,251.1z M1134.1,272c0,12.7-10.3,23-23,23
			c-7.6,0-13.7-6.1-13.7-13.7s6.1-13.7,13.7-13.7h23V272z"/>
		<polygon class="st4" points="604.5,316.9 604.5,232.8 571.6,294 547,294 514.1,233.6 514.1,316.9 479.6,316.9 479.6,159.9 
			510.2,159.9 559.5,252.6 608.8,159.9 639,159.9 639,316.9 		"/>
	</g>
</g>
<g id="Layer_3" class="st5">
	<g class="st6">
		<polyline class="st7" points="461.3,275.7 240.5,148.2 19.8,275.7 		"/>
		<polyline class="st7" points="461.3,305.3 240.5,177.8 19.8,305.3 		"/>
		<polyline class="st7" points="461.1,334.8 240.5,207.4 19.8,334.9 		"/>
		<polyline class="st7" points="19.8,200.2 240.5,327.7 461.1,200.3 		"/>
		<polyline class="st7" points="19.8,170.6 240.5,298.1 461.1,170.7 		"/>
		<polyline class="st7" points="19.8,141.1 240.5,268.5 461.3,141.1 		"/>
		<circle class="st7" cx="152.6" cy="208.4" r="8.1"/>
		<circle class="st7" cx="152.6" cy="237.9" r="8.1"/>
		<circle class="st7" cx="152.6" cy="267.5" r="8.1"/>
		<circle class="st7" cx="328.6" cy="208.4" r="8.1"/>
		<circle class="st7" cx="328.6" cy="237.9" r="8.1"/>
		<circle class="st7" cx="328.6" cy="267.5" r="8.1"/>
		<circle class="st8" cx="240.5" cy="238" r="26.4"/>
		<circle class="st8" cx="240.5" cy="208.4" r="26.4"/>
		<circle class="st8" cx="240.5" cy="178.8" r="26.4"/>
		<circle class="st8" cx="240.5" cy="297.1" r="26.4"/>
		<circle class="st8" cx="240.5" cy="267.5" r="26.4"/>
	</g>
</g>
</svg>
